<svg width="120" height="110" viewBox="0 0 120 110" fill="none" xmlns="http://www.w3.org/2000/svg"><link xmlns="" type="text/css" id="dark-mode" rel="stylesheet" href=""/><style xmlns="" type="text/css" id="dark-mode-custom-style"/>
  <g clip-path="url(#clip0)">
    <path d="M15.7046 70.3027C-4.33909 59.1458 -0.369244 29.2214 21.8782 23.7666L87.0215 7.79419C105.633 3.23085 122.369 20.2993 117.447 38.8232L105.355 84.3258C101.139 100.193 83.1188 107.828 68.7561 99.8329L15.7046 70.3027Z" fill="#D8F8EA"/>
    <path d="M99.5 54.75C99.5 73.3896 84.3896 88.5 65.75 88.5C47.1104 88.5 32 73.3896 32 54.75C32 36.1104 47.1104 21 65.75 21C84.3896 21 99.5 36.1104 99.5 54.75Z" fill="#2FC18C"/>
    <path fill-rule="evenodd" clip-rule="evenodd" d="M65.75 86.5C83.285 86.5 97.5 72.285 97.5 54.75C97.5 37.215 83.285 23 65.75 23C48.215 23 34 37.215 34 54.75C34 72.285 48.215 86.5 65.75 86.5ZM65.75 88.5C84.3896 88.5 99.5 73.3896 99.5 54.75C99.5 36.1104 84.3896 21 65.75 21C47.1104 21 32 36.1104 32 54.75C32 73.3896 47.1104 88.5 65.75 88.5Z" fill="#036B52"/>
    <path d="M66.3446 25.9449C65.9597 26.6116 64.9974 26.6116 64.6125 25.9449L63.0672 23.2683C62.6823 22.6016 63.1634 21.7683 63.9332 21.7683L67.0239 21.7683C67.7937 21.7683 68.2748 22.6016 67.8899 23.2683L66.3446 25.9449Z" fill="#036B52"/>
    <path d="M66.3446 83.8455C65.9597 83.1789 64.9974 83.1789 64.6125 83.8455L63.0672 86.5221C62.6823 87.1888 63.1634 88.0221 63.9332 88.0221L67.0239 88.0221C67.7937 88.0221 68.2748 87.1888 67.8899 86.5221L66.3446 83.8455Z" fill="#036B52"/>
    <path d="M36.9449 53.6126C37.6116 53.9975 37.6116 54.9597 36.9449 55.3446L34.2683 56.89C33.6016 57.2749 32.7683 56.7937 32.7683 56.0239L32.7683 52.9333C32.7683 52.1635 33.6016 51.6823 34.2683 52.0672L36.9449 53.6126Z" fill="#036B52"/>
    <path d="M94.8456 53.6125C94.179 53.9974 94.179 54.9597 94.8456 55.3446L97.5222 56.8899C98.1889 57.2748 99.0222 56.7937 99.0222 56.0239L99.0222 52.9332C99.0222 52.1634 98.1889 51.6823 97.5222 52.0672L94.8456 53.6125Z" fill="#036B52"/>
    <path d="M73.9823 39.5086C76.1327 38.5086 78.5385 40.2814 78.2201 42.6315L75.808 60.4384C75.6708 61.4515 75.0271 62.3249 74.1002 62.756L57.8063 70.333C55.6558 71.333 53.2501 69.5601 53.5684 67.21L55.9805 49.4032C56.1177 48.3901 56.7614 47.5167 57.6884 47.0856L73.9823 39.5086Z" fill="#036B52"/>
    <path d="M69.9509 54.4786C69.9509 56.5686 68.2566 58.263 66.1665 58.263C64.0765 58.263 62.3821 56.5686 62.3821 54.4786C62.3821 52.3885 64.0765 50.6942 66.1665 50.6942C68.2566 50.6942 69.9509 52.3885 69.9509 54.4786Z" fill="#2FC18C"/>
  </g>
  <defs>
    <clipPath id="clip0">
      <rect width="120" height="110" fill="white"/>
    </clipPath>
  </defs>
</svg>