<svg width="120" height="110" viewBox="0 0 120 110" fill="none" xmlns="http://www.w3.org/2000/svg"><link xmlns="" type="text/css" id="dark-mode" rel="stylesheet" href=""/><style xmlns="" type="text/css" id="dark-mode-custom-style"/>
  <g clip-path="url(#clip0)">
    <path d="M15.7046 70.3027C-4.33909 59.1458 -0.369244 29.2214 21.8782 23.7666L87.0215 7.79419C105.633 3.23085 122.369 20.2993 117.447 38.8232L105.355 84.3258C101.139 100.193 83.1188 107.828 68.7561 99.8329L15.7046 70.3027Z" fill="#D8F8EA"/>
    <path d="M81.1212 81.09C82.3894 82.7567 83.307 84.6652 83.8183 86.6996C84.816 90.8783 83.4252 98.3088 81.717 100.026C81.595 100.187 81.426 100.306 81.2336 100.366C81.0412 100.426 80.835 100.424 80.6437 100.36C78.7252 99.6009 77.8181 96.7325 77.0928 94.4389L77.0912 94.434C76.8749 93.63 76.576 92.8509 76.1993 92.1091C75.3225 90.6959 73.0852 90.1033 70.984 89.8906C70.6514 90.4984 70.213 91.243 69.9863 91.638C69.7595 92.0331 69.6083 92.337 69.3211 92.8081C69.0339 93.2791 68.7316 93.811 68.399 94.3276C68.3192 94.4697 68.2171 94.598 68.0967 94.7075C67.8839 94.91 67.6316 95.0659 67.3558 95.1653C67.0799 95.2647 66.7866 95.3054 66.4943 95.2849L60.6138 95.3457C60.2514 95.379 59.8871 95.3082 59.5632 95.1414C59.2394 94.9746 58.9693 94.7187 58.7846 94.4036C58.6384 94.1361 58.4769 93.8773 58.3009 93.6286C58.1815 93.4726 58.0704 93.3103 57.9683 93.1424L56.9706 91.5013L56.0636 89.8754C54.3364 89.9316 52.6706 90.5323 51.3017 91.5925C51.1499 91.742 51.0178 91.9105 50.9087 92.0939C50.5255 92.8327 50.2263 93.6126 50.0168 94.4188C49.5767 96.3072 48.7305 98.0759 47.5376 99.6004C47.2406 99.9278 46.8806 100.191 46.4794 100.375C46.3058 100.432 46.1191 100.435 45.9438 100.384C45.7684 100.332 45.6127 100.229 45.4968 100.087C43.7584 98.5519 42.2921 90.9695 43.3654 86.6996C44.0321 84.0113 45.4174 81.5575 47.3713 79.6034C48.3595 78.6111 49.4724 77.7529 50.682 77.0506C48.6606 70.7836 47.1837 64.3521 46.2678 57.8286C45.4852 53.202 45.151 48.51 45.2701 43.8186C45.4983 39.1197 46.3577 34.4734 47.8249 30.0061C49.2851 25.5444 51.5274 21.3812 54.4461 17.7131C56.0055 15.7351 57.741 13.9041 59.6312 12.2428C60.6591 11.3007 62.1103 10.1915 62.9418 9.61407L63.5465 9.2038L64.1663 9.61407C71.472 14.6601 76.8346 22.0726 79.3588 30.6139C80.7462 35.0047 81.5792 39.5533 81.8379 44.1529C81.995 48.8773 81.6453 53.605 80.7949 58.2541C79.8136 64.6053 78.3583 70.8733 76.4412 77.005C78.2607 78.0335 79.853 79.4234 81.1212 81.09Z" fill="#2FC18C"/>
    <path fill-rule="evenodd" clip-rule="evenodd" d="M63.5396 8L64.7265 8.78564L64.7346 8.79125C72.2264 13.9659 77.7253 21.5656 80.3151 30.3215C81.726 34.789 82.5731 39.417 82.8364 44.0967L82.837 44.1082L82.8374 44.1197C82.9966 48.9109 82.6425 53.7054 81.781 58.4204C80.8323 64.5566 79.4445 70.6157 77.6285 76.5505C79.278 77.5938 80.7307 78.9256 81.917 80.4845C83.2672 82.2589 84.244 84.2906 84.7881 86.4559L84.791 86.4673C85.334 88.7418 85.2155 91.7946 84.7685 94.4517C84.5429 95.7925 84.2274 97.071 83.849 98.1404C83.4923 99.1486 83.0394 100.09 82.4693 100.687C82.2258 100.985 81.8999 101.205 81.531 101.32C81.1388 101.443 80.7183 101.439 80.3285 101.309L80.3019 101.3L80.2757 101.29C78.9702 100.773 78.1201 99.5927 77.529 98.4272C76.9346 97.2553 76.5061 95.9004 76.151 94.7772L76.1393 94.7404L76.1311 94.7144L76.1256 94.6939C75.9312 93.9717 75.6643 93.2714 75.3289 92.6038C75.0495 92.1768 74.5118 91.7924 73.6979 91.4853C73.0544 91.2426 72.3062 91.0742 71.5294 90.9638C71.3618 91.2583 71.1929 91.5496 71.0534 91.7901C70.9759 91.9238 70.9076 92.0417 70.8536 92.1358C70.7879 92.2502 70.7217 92.3703 70.6514 92.4977C70.5163 92.7428 70.3659 93.0154 70.1749 93.3287C70.0867 93.4733 69.9907 93.6348 69.8892 93.8055C69.6922 94.137 69.4746 94.5029 69.2543 94.8464C69.1265 95.0671 68.9659 95.2671 68.7778 95.4397C68.4664 95.7339 68.0978 95.9608 67.6948 96.106C67.3019 96.2476 66.8849 96.3085 66.4683 96.2852L60.6606 96.3452C60.1232 96.3863 59.5849 96.2774 59.1053 96.0304C58.6125 95.7765 58.2022 95.3875 57.9219 94.9093L57.9143 94.8963L57.9071 94.8831C57.7822 94.6545 57.6444 94.4333 57.4946 94.2204C57.3581 94.041 57.231 93.8546 57.1139 93.6619L56.1064 92.0048L55.5007 90.919C54.2207 91.0675 52.9993 91.5577 51.9657 92.3434C51.8966 92.4166 51.8349 92.4968 51.7817 92.5828C51.4418 93.2431 51.1755 93.9393 50.9877 94.6586C50.5138 96.6837 49.6052 98.5807 48.3252 100.217L48.3028 100.245L48.2783 100.272C47.8906 100.7 47.4204 101.044 46.8961 101.284L46.8447 101.308L46.7909 101.326C46.425 101.446 46.0314 101.452 45.6618 101.343C45.3204 101.243 45.0149 101.049 44.7787 100.785C44.1732 100.22 43.704 99.2809 43.3409 98.2929C42.95 97.2297 42.6237 95.9433 42.3911 94.5879C41.9304 91.9025 41.8108 88.7838 42.3951 86.4573C43.1056 83.5942 44.581 80.9802 46.6627 78.8978C47.5221 78.0348 48.4704 77.2672 49.4912 76.6078C47.5758 70.5276 46.167 64.2974 45.2795 57.9815C44.4878 53.296 44.1498 48.5443 44.2704 43.7932L44.2707 43.7816L44.2713 43.7701C44.5039 38.9818 45.3796 34.247 46.8746 29.6946C48.3715 25.1209 50.6702 20.8529 53.6622 17.0922C55.2567 15.0699 57.031 13.1976 58.9632 11.4985C60.032 10.5202 61.5155 9.3871 62.3714 8.79271L62.3803 8.78651L63.5396 8ZM63.5079 10.4384L63.5533 10.4076L63.606 10.4425C70.719 15.3581 75.9411 22.5776 78.3998 30.8973L78.4024 30.9063L78.4052 30.9152C79.7664 35.2228 80.584 39.6852 80.8389 44.1976C80.9926 48.8468 80.648 53.4991 79.8112 58.0741L79.8087 58.0877L79.8066 58.1014C78.8329 64.4033 77.3889 70.6226 75.4868 76.7066L75.2456 77.4779L75.9491 77.8755C77.6502 78.8371 79.1392 80.1367 80.3254 81.6956C81.5103 83.2528 82.3683 85.0361 82.8469 86.9374C83.3001 88.8414 83.2218 91.5903 82.7962 94.1199C82.5853 95.3736 82.2952 96.536 81.9636 97.4733C81.6192 98.4464 81.2716 99.0556 81.0081 99.3205L80.9605 99.3683L80.9374 99.3989C80.3532 99.1357 79.8148 98.5127 79.3127 97.5226C78.8013 96.5144 78.4175 95.3114 78.0511 94.1528C77.8173 93.2898 77.4956 92.4532 77.091 91.6564L77.0716 91.6182L77.0491 91.5819C76.4453 90.6088 75.4324 90.002 74.4038 89.614C73.3612 89.2208 72.1827 89.0068 71.0847 88.8957L70.425 88.8289L70.1067 89.4106C69.8651 89.8522 69.5688 90.3633 69.3355 90.7657C69.2539 90.9064 69.1801 91.0338 69.119 91.1402C69.0176 91.3169 68.9396 91.459 68.8655 91.5939C68.7485 91.807 68.6413 92.0021 68.4673 92.2875C68.3548 92.472 68.2475 92.6527 68.1409 92.8322C67.9526 93.1493 67.7665 93.4626 67.5581 93.7863L67.5418 93.8116L67.5271 93.8379C67.4997 93.8866 67.4648 93.9304 67.424 93.9676L67.4155 93.9752L67.4072 93.9831C67.2948 94.0901 67.1618 94.1722 67.0167 94.2245C66.8717 94.2767 66.7177 94.2981 66.5642 94.2873L66.5241 94.2845L60.5627 94.3461L60.5221 94.3499C60.3496 94.3658 60.1758 94.3321 60.0211 94.2524C59.8698 94.1744 59.7423 94.0554 59.6534 93.9081C59.491 93.6124 59.312 93.3262 59.1171 93.0509L59.1063 93.0356L59.0949 93.0207C58.9972 92.8931 58.9063 92.7603 58.8228 92.6229C58.8228 92.6229 58.8228 92.6229 58.8228 92.6229L57.8348 90.9978L56.64 88.8561L56.0311 88.8759C54.093 88.939 52.2244 89.613 50.6894 90.8018L50.6425 90.8382L50.6001 90.8799C50.3872 91.0896 50.2021 91.3258 50.0493 91.5827L50.0344 91.6077L50.021 91.6335C49.6033 92.4388 49.2772 93.2887 49.049 94.1673L49.0458 94.1795L49.0429 94.1918C48.6388 95.926 47.8645 97.5507 46.7741 98.9533C46.6117 99.127 46.4236 99.2737 46.2169 99.3884L46.1587 99.3369C45.9223 99.1283 45.574 98.5713 45.2181 97.6028C44.8786 96.6793 44.5795 95.5154 44.3623 94.2497C43.9237 91.6932 43.8467 88.8866 44.3352 86.9434L44.336 86.9403C44.959 84.4281 46.2534 82.1356 48.0785 80.3105L48.08 80.309C49.0066 79.3784 50.0501 78.5738 51.1841 77.9154L51.8811 77.5107L51.6337 76.7436C49.63 70.5314 48.166 64.1561 47.2581 57.6896L47.2561 57.6757L47.2538 57.6618C46.4826 53.1025 46.1529 48.4788 46.2695 43.8555C46.4942 39.2502 47.337 34.6965 48.7749 30.3181L48.7753 30.3171C50.1985 25.9683 52.3841 21.9106 55.2286 18.3358L55.2314 18.3322C56.7532 16.4019 58.4469 14.6151 60.2913 12.994L60.2992 12.9871L60.3068 12.9801C61.2917 12.0775 62.7022 10.9983 63.5079 10.4384Z" fill="#036B52"/>
    <path d="M65.6232 50.6432L67.9316 54.6618C67.985 54.7611 68.0648 54.8436 68.1623 54.9002C68.2597 54.9568 68.371 54.9853 68.4837 54.9825C68.5691 54.9842 68.6539 54.9688 68.7333 54.9373C68.8127 54.9058 68.8849 54.8587 68.9458 54.7989C69.0067 54.739 69.055 54.6677 69.088 54.5889C69.1209 54.5102 69.1377 54.4257 69.1375 54.3403L69.1493 46.303C69.1547 46.1583 69.1107 46.016 69.0245 45.8995C68.9384 45.783 68.8152 45.6993 68.6751 45.6619C68.5351 45.6245 68.3865 45.6358 68.2537 45.6939C68.1209 45.7519 68.0118 45.8534 67.9442 45.9815L65.6232 49.9876C65.5669 50.0853 65.5383 50.1964 65.5404 50.3091C65.538 50.4258 65.5665 50.5411 65.6232 50.6432Z" fill="#036B52"/>
    <path d="M63.2317 52.0103L65.552 56.0171C65.6105 56.1185 65.6433 56.2327 65.6474 56.3497C65.6414 56.5201 65.5701 56.6817 65.4483 56.8012C65.3265 56.9207 65.1635 56.989 64.9928 56.9919C64.8801 56.9926 64.7691 56.9638 64.671 56.9083L57.7102 52.8786C57.6125 52.8246 57.5312 52.7454 57.4747 52.6492C57.4183 52.553 57.3887 52.4433 57.3892 52.3318C57.3876 52.245 57.4032 52.1587 57.4353 52.0779C57.4674 51.9972 57.5153 51.9237 57.5762 51.8617C57.6371 51.7997 57.7097 51.7505 57.7899 51.7169C57.8701 51.6832 57.9561 51.6659 58.043 51.666L62.6725 51.6896C62.7862 51.6869 62.8984 51.7154 62.9969 51.7719C63.0955 51.8285 63.1767 51.9109 63.2317 52.0103Z" fill="#036B52"/>
    <path d="M62.6613 48.8971H58.0326C57.891 48.8966 57.7535 48.8496 57.6413 48.7633C57.5292 48.6769 57.4486 48.5561 57.412 48.4194C57.3755 48.2827 57.385 48.1378 57.4392 48.0071C57.4934 47.8763 57.5891 47.7671 57.7116 47.6962L64.6835 43.6885C64.7851 43.6297 64.8997 43.5969 65.0171 43.5932C65.1884 43.5971 65.3514 43.6676 65.4714 43.7898C65.5915 43.9119 65.6591 44.076 65.6599 44.2472C65.6558 44.3605 65.6229 44.4708 65.5644 44.5679L63.2205 48.5748C63.1646 48.6735 63.0832 48.7554 62.9849 48.8121C62.8866 48.8688 62.7748 48.8981 62.6613 48.8971Z" fill="#036B52"/>
  </g>
  <defs>
    <clipPath id="clip0">
      <rect width="120" height="110" fill="white"/>
    </clipPath>
  </defs>
</svg>