<svg width="120" height="110" viewBox="0 0 120 110" fill="none" xmlns="http://www.w3.org/2000/svg"><link xmlns="" type="text/css" id="dark-mode" rel="stylesheet" href=""/><style xmlns="" type="text/css" id="dark-mode-custom-style"/>
  <g clip-path="url(#clip0)">
    <path d="M13.7046 70.3027C-6.33909 59.1458 -2.36924 29.2214 19.8782 23.7666L85.0215 7.79419C103.633 3.23085 120.369 20.2993 115.447 38.8232L103.355 84.3258C99.1386 100.193 81.1188 107.828 66.7561 99.8329L13.7046 70.3027Z" fill="#C7DFFF"/>
    <path d="M33.1606 43.4835C34.1993 27.0156 47.8836 14 64.6736 14C82.1598 14 96.3024 28.1121 96.3024 45.5606C96.3024 57.8074 89.2786 68.4303 79.067 73.643C78.559 73.9023 78.2288 74.4189 78.2288 74.9892V83.3706C78.2288 84.0029 77.826 84.5649 77.2272 84.768L48.5495 94.4946C47.5927 94.8191 46.6 94.1076 46.6 93.0972V81.6298H42.0816C37.6117 81.6298 35.2132 77.6983 34.5204 73.4154C34.3903 72.6109 35.0692 71.9484 35.8838 71.9245C46.7897 71.6044 48.1361 68.3028 48.1361 65.2387H34.5204C33.7055 65.2387 33.0448 64.5781 33.0448 63.7632V59.0865H26.2672C24.4147 59.0865 23.3303 56.9675 24.4599 55.4796L32.863 44.2996C33.0404 44.0636 33.142 43.7781 33.1606 43.4835Z" fill="#80B7FF"/>
    <path fill-rule="evenodd" clip-rule="evenodd" d="M25.6351 56.3719C25.2617 56.8637 25.6038 57.611 26.2672 57.611H34.5204V63.7632H49.6116V65.2387C49.6116 67.2467 48.7273 69.44 46.3044 71.1131C43.9674 72.7269 41.1597 73.0736 35.6207 73.2463C36.2907 76.7507 38.452 80.1543 42.0816 80.1543H48.0756V93.0972L76.7533 83.3706V74.9892C76.7533 73.8397 77.4167 72.8287 78.3961 72.3288C88.1355 67.3571 94.8269 57.229 94.8269 45.5606C94.8269 28.93 81.3479 15.4756 64.6736 15.4756C48.6645 15.4756 35.623 27.8838 34.6332 43.5763C34.5973 44.1459 34.4004 44.71 34.0425 45.1862L25.6351 56.3719ZM47.9241 66.7143C47.1198 69.4253 44.6952 71.5039 35.4892 71.7741C34.6746 71.798 33.9956 72.4605 34.1257 73.265C34.8185 77.5479 37.6117 81.6298 42.0816 81.6298H46.6V93.0972C46.6 94.1076 47.5927 94.8191 48.5495 94.4946L77.2272 84.768C77.826 84.5649 78.2288 84.0029 78.2288 83.3706V74.9892C78.2288 74.4189 78.559 73.9023 79.067 73.643C89.2786 68.4303 96.3024 57.8074 96.3024 45.5606C96.3024 28.1121 82.1598 14 64.6736 14C47.8836 14 34.1993 27.0156 33.1606 43.4835C33.142 43.7781 33.0404 44.0636 32.863 44.2996L24.4599 55.4796C23.3303 56.9675 24.4147 59.0865 26.2672 59.0865H33.0448V63.7632C33.0448 64.5781 33.7055 65.2387 34.5204 65.2387H48.1361C48.1361 65.7163 48.0726 66.2137 47.9241 66.7143Z" fill="#003BE5"/>
    <path d="M75.5011 32.9927L71.6577 33.5108C71.0644 32.7685 70.4098 32.122 69.6591 31.5627L70.0637 27.7334C70.0814 27.3671 69.8633 27.0527 69.514 26.965L63.9252 25.5615C63.5759 25.4738 63.2351 25.6478 63.1126 25.9879L61.6601 29.554C60.7342 29.6923 59.8169 29.944 58.9781 30.3267L55.8355 28.0542C55.5474 27.8706 55.1369 27.8788 54.9184 28.1576L50.9151 32.2698C50.6616 32.5399 50.6351 32.9412 50.862 33.2207L53.2529 36.2686C53.0429 36.6609 52.8504 37.1317 52.7366 37.5852C52.6227 38.0387 52.5437 38.5009 52.4997 38.972L48.9874 40.5375C48.6554 40.6766 48.4892 41.0428 48.5938 41.3657L50.1705 46.9163C50.2663 47.2741 50.5894 47.4664 50.9649 47.4495L54.7734 46.9226C55.3668 47.6649 56.0214 48.3114 56.807 48.8795L56.3675 52.7C56.3497 53.0664 56.5678 53.3807 56.9172 53.4684L62.506 54.8719C62.8553 54.9596 63.196 54.7856 63.3535 54.4543L64.806 50.8882C65.7319 50.7499 66.6492 50.4982 67.488 50.1155L70.5956 52.3792C70.875 52.5977 71.2942 52.5546 71.5128 52.2758L75.5248 48.1287C75.7783 47.8586 75.7961 47.4922 75.5692 47.2127L73.2482 44.1824C73.4319 43.7464 73.5807 43.3017 73.6946 42.8482C73.8172 42.3598 73.8962 41.8976 73.9314 41.4614L77.4787 39.9047C77.8107 39.7656 77.9769 39.3994 77.8811 39.0416L76.2956 33.5259C76.1997 33.1681 75.8418 32.967 75.5011 32.9927ZM61.9629 45.2051C59.2034 44.5121 57.5285 41.7182 58.2206 38.9624C58.9126 36.2065 61.7088 34.5354 64.4683 35.2283C67.2277 35.9213 68.9026 38.7153 68.2106 41.4711C67.5185 44.2269 64.7224 45.898 61.9629 45.2051Z" fill="#003BE5"/>
  </g>
  <defs>
    <clipPath id="clip0">
      <rect width="120" height="110" fill="white"/>
    </clipPath>
  </defs>
</svg>